ISO-10303-21;
HEADER;
/* Generated by software containing ST-Developer
 * from STEP Tools, Inc. (www.steptools.com) 
 */
/* OPTION: using custom renumber hook */

FILE_DESCRIPTION(
/* description */ ('STEP AP242 Edition 2',
'CAx-IF Rec.Pracs.---Representation and Presentation of Product Manufa
cturing Information (PMI)---4.0---2014-10-13',
'CAx-IF Rec.Pracs.---3D Tessellated Geometry---0.4---2014-09-14','2;1',
'CAx-IF Rec.Pracs.---User Defined Attributes---1.5---2016-08-15'),
/* implementation_level */ '2;1');

FILE_NAME(
/* name */ 'Bottom Case',
/* time_stamp */ '2026-09-13T09:01:00Z',
/* author */ (''),
/* organization */ (''),
/* preprocessor_version */ 'ST-DEVELOPER v20',
/* originating_system */ 'ONSHAPE BY PTC INC, 1.220',
/* authorisation */ '  ');

FILE_SCHEMA (('AP242_MANAGED_MODEL_BASED_3D_ENGINEERING_MIM_LF { 1 0 10303 442 3 1 4 }'));
ENDSEC;

DATA;
#10=SHAPE_REPRESENTATION_RELATIONSHIP('','',#501,#11);
#11=ADVANCED_BREP_SHAPE_REPRESENTATION('',(#499),#803);
#12=CYLINDRICAL_SURFACE('',#522,0.000900000000000012);
#13=CYLINDRICAL_SURFACE('',#524,0.0009);
#14=CYLINDRICAL_SURFACE('',#526,0.0009);
#15=CYLINDRICAL_SURFACE('',#528,0.000900000000000012);
#16=CIRCLE('',#507,0.000900000000000012);
#17=CIRCLE('',#508,0.0009);
#18=CIRCLE('',#509,0.0009);
#19=CIRCLE('',#510,0.000900000000000012);
#20=CIRCLE('',#523,0.000900000000000012);
#21=CIRCLE('',#525,0.0009);
#22=CIRCLE('',#527,0.0009);
#23=CIRCLE('',#529,0.000900000000000012);
#24=ORIENTED_EDGE('',*,*,#148,.T.);
#25=ORIENTED_EDGE('',*,*,#149,.T.);
#26=ORIENTED_EDGE('',*,*,#150,.F.);
#27=ORIENTED_EDGE('',*,*,#151,.F.);
#28=ORIENTED_EDGE('',*,*,#152,.T.);
#29=ORIENTED_EDGE('',*,*,#153,.T.);
#30=ORIENTED_EDGE('',*,*,#154,.T.);
#31=ORIENTED_EDGE('',*,*,#155,.T.);
#32=ORIENTED_EDGE('',*,*,#156,.F.);
#33=ORIENTED_EDGE('',*,*,#157,.F.);
#34=ORIENTED_EDGE('',*,*,#158,.F.);
#35=ORIENTED_EDGE('',*,*,#159,.T.);
#36=ORIENTED_EDGE('',*,*,#160,.F.);
#37=ORIENTED_EDGE('',*,*,#161,.F.);
#38=ORIENTED_EDGE('',*,*,#162,.T.);
#39=ORIENTED_EDGE('',*,*,#163,.T.);
#40=ORIENTED_EDGE('',*,*,#164,.T.);
#41=ORIENTED_EDGE('',*,*,#165,.T.);
#42=ORIENTED_EDGE('',*,*,#166,.T.);
#43=ORIENTED_EDGE('',*,*,#167,.T.);
#44=ORIENTED_EDGE('',*,*,#168,.F.);
#45=ORIENTED_EDGE('',*,*,#169,.F.);
#46=ORIENTED_EDGE('',*,*,#170,.T.);
#47=ORIENTED_EDGE('',*,*,#171,.T.);
#48=ORIENTED_EDGE('',*,*,#172,.F.);
#49=ORIENTED_EDGE('',*,*,#173,.F.);
#50=ORIENTED_EDGE('',*,*,#174,.F.);
#51=ORIENTED_EDGE('',*,*,#175,.F.);
#52=ORIENTED_EDGE('',*,*,#166,.F.);
#53=ORIENTED_EDGE('',*,*,#176,.T.);
#54=ORIENTED_EDGE('',*,*,#163,.F.);
#55=ORIENTED_EDGE('',*,*,#177,.F.);
#56=ORIENTED_EDGE('',*,*,#178,.T.);
#57=ORIENTED_EDGE('',*,*,#179,.T.);
#58=ORIENTED_EDGE('',*,*,#159,.F.);
#59=ORIENTED_EDGE('',*,*,#180,.T.);
#60=ORIENTED_EDGE('',*,*,#170,.F.);
#61=ORIENTED_EDGE('',*,*,#181,.T.);
#62=ORIENTED_EDGE('',*,*,#182,.F.);
#63=ORIENTED_EDGE('',*,*,#183,.F.);
#64=ORIENTED_EDGE('',*,*,#184,.T.);
#65=ORIENTED_EDGE('',*,*,#185,.T.);
#66=ORIENTED_EDGE('',*,*,#148,.F.);
#67=ORIENTED_EDGE('',*,*,#186,.F.);
#68=ORIENTED_EDGE('',*,*,#187,.T.);
#69=ORIENTED_EDGE('',*,*,#188,.F.);
#70=ORIENTED_EDGE('',*,*,#184,.F.);
#71=ORIENTED_EDGE('',*,*,#189,.T.);
#72=ORIENTED_EDGE('',*,*,#150,.T.);
#73=ORIENTED_EDGE('',*,*,#190,.F.);
#74=ORIENTED_EDGE('',*,*,#187,.F.);
#75=ORIENTED_EDGE('',*,*,#191,.T.);
#76=ORIENTED_EDGE('',*,*,#151,.T.);
#77=ORIENTED_EDGE('',*,*,#191,.F.);
#78=ORIENTED_EDGE('',*,*,#189,.F.);
#79=ORIENTED_EDGE('',*,*,#186,.T.);
#80=ORIENTED_EDGE('',*,*,#179,.F.);
#81=ORIENTED_EDGE('',*,*,#192,.F.);
#82=ORIENTED_EDGE('',*,*,#193,.T.);
#83=ORIENTED_EDGE('',*,*,#160,.T.);
#84=ORIENTED_EDGE('',*,*,#178,.F.);
#85=ORIENTED_EDGE('',*,*,#194,.F.);
#86=ORIENTED_EDGE('',*,*,#195,.T.);
#87=ORIENTED_EDGE('',*,*,#192,.T.);
#88=ORIENTED_EDGE('',*,*,#194,.T.);
#89=ORIENTED_EDGE('',*,*,#177,.T.);
#90=ORIENTED_EDGE('',*,*,#162,.F.);
#91=ORIENTED_EDGE('',*,*,#196,.F.);
#92=ORIENTED_EDGE('',*,*,#193,.F.);
#93=ORIENTED_EDGE('',*,*,#195,.F.);
#94=ORIENTED_EDGE('',*,*,#196,.T.);
#95=ORIENTED_EDGE('',*,*,#161,.T.);
#96=ORIENTED_EDGE('',*,*,#149,.F.);
#97=ORIENTED_EDGE('',*,*,#185,.F.);
#98=ORIENTED_EDGE('',*,*,#188,.T.);
#99=ORIENTED_EDGE('',*,*,#190,.T.);
#100=ORIENTED_EDGE('',*,*,#197,.T.);
#101=ORIENTED_EDGE('',*,*,#198,.F.);
#102=ORIENTED_EDGE('',*,*,#181,.F.);
#103=ORIENTED_EDGE('',*,*,#169,.T.);
#104=ORIENTED_EDGE('',*,*,#199,.F.);
#105=ORIENTED_EDGE('',*,*,#200,.F.);
#106=ORIENTED_EDGE('',*,*,#182,.T.);
#107=ORIENTED_EDGE('',*,*,#198,.T.);
#108=ORIENTED_EDGE('',*,*,#201,.F.);
#109=ORIENTED_EDGE('',*,*,#167,.F.);
#110=ORIENTED_EDGE('',*,*,#183,.T.);
#111=ORIENTED_EDGE('',*,*,#200,.T.);
#112=ORIENTED_EDGE('',*,*,#202,.F.);
#113=ORIENTED_EDGE('',*,*,#175,.T.);
#114=ORIENTED_EDGE('',*,*,#203,.F.);
#115=ORIENTED_EDGE('',*,*,#174,.T.);
#116=ORIENTED_EDGE('',*,*,#204,.F.);
#117=ORIENTED_EDGE('',*,*,#173,.T.);
#118=ORIENTED_EDGE('',*,*,#205,.F.);
#119=ORIENTED_EDGE('',*,*,#172,.T.);
#120=ORIENTED_EDGE('',*,*,#168,.T.);
#121=ORIENTED_EDGE('',*,*,#201,.T.);
#122=ORIENTED_EDGE('',*,*,#199,.T.);
#123=ORIENTED_EDGE('',*,*,#197,.F.);
#124=ORIENTED_EDGE('',*,*,#205,.T.);
#125=ORIENTED_EDGE('',*,*,#204,.T.);
#126=ORIENTED_EDGE('',*,*,#203,.T.);
#127=ORIENTED_EDGE('',*,*,#202,.T.);
#128=ORIENTED_EDGE('',*,*,#157,.T.);
#129=ORIENTED_EDGE('',*,*,#206,.T.);
#130=ORIENTED_EDGE('',*,*,#154,.F.);
#131=ORIENTED_EDGE('',*,*,#207,.F.);
#132=ORIENTED_EDGE('',*,*,#156,.T.);
#133=ORIENTED_EDGE('',*,*,#176,.F.);
#134=ORIENTED_EDGE('',*,*,#165,.F.);
#135=ORIENTED_EDGE('',*,*,#208,.T.);
#136=ORIENTED_EDGE('',*,*,#155,.F.);
#137=ORIENTED_EDGE('',*,*,#206,.F.);
#138=ORIENTED_EDGE('',*,*,#158,.T.);
#139=ORIENTED_EDGE('',*,*,#207,.T.);
#140=ORIENTED_EDGE('',*,*,#153,.F.);
#141=ORIENTED_EDGE('',*,*,#209,.F.);
#142=ORIENTED_EDGE('',*,*,#171,.F.);
#143=ORIENTED_EDGE('',*,*,#180,.F.);
#144=ORIENTED_EDGE('',*,*,#209,.T.);
#145=ORIENTED_EDGE('',*,*,#152,.F.);
#146=ORIENTED_EDGE('',*,*,#208,.F.);
#147=ORIENTED_EDGE('',*,*,#164,.F.);
#148=EDGE_CURVE('',#210,#211,#254,.T.);
#149=EDGE_CURVE('',#211,#212,#255,.T.);
#150=EDGE_CURVE('',#213,#212,#256,.T.);
#151=EDGE_CURVE('',#210,#213,#257,.T.);
#152=EDGE_CURVE('',#214,#215,#258,.T.);
#153=EDGE_CURVE('',#215,#216,#259,.T.);
#154=EDGE_CURVE('',#216,#217,#260,.T.);
#155=EDGE_CURVE('',#217,#214,#261,.T.);
#156=EDGE_CURVE('',#218,#219,#262,.T.);
#157=EDGE_CURVE('',#220,#218,#263,.T.);
#158=EDGE_CURVE('',#221,#220,#264,.T.);
#159=EDGE_CURVE('',#221,#222,#265,.T.);
#160=EDGE_CURVE('',#223,#222,#266,.T.);
#161=EDGE_CURVE('',#224,#223,#267,.T.);
#162=EDGE_CURVE('',#224,#225,#268,.T.);
#163=EDGE_CURVE('',#225,#219,#269,.T.);
#164=EDGE_CURVE('',#226,#227,#270,.T.);
#165=EDGE_CURVE('',#227,#228,#271,.T.);
#166=EDGE_CURVE('',#228,#229,#272,.T.);
#167=EDGE_CURVE('',#229,#230,#273,.T.);
#168=EDGE_CURVE('',#231,#230,#274,.T.);
#169=EDGE_CURVE('',#232,#231,#275,.T.);
#170=EDGE_CURVE('',#232,#233,#276,.T.);
#171=EDGE_CURVE('',#233,#226,#277,.T.);
#172=EDGE_CURVE('',#234,#234,#16,.T.);
#173=EDGE_CURVE('',#235,#235,#17,.T.);
#174=EDGE_CURVE('',#236,#236,#18,.T.);
#175=EDGE_CURVE('',#237,#237,#19,.T.);
#176=EDGE_CURVE('',#228,#219,#278,.T.);
#177=EDGE_CURVE('',#238,#225,#279,.T.);
#178=EDGE_CURVE('',#238,#239,#280,.T.);
#179=EDGE_CURVE('',#239,#222,#281,.T.);
#180=EDGE_CURVE('',#221,#233,#282,.T.);
#181=EDGE_CURVE('',#232,#240,#283,.T.);
#182=EDGE_CURVE('',#241,#240,#284,.T.);
#183=EDGE_CURVE('',#229,#241,#285,.T.);
#184=EDGE_CURVE('',#242,#243,#286,.T.);
#185=EDGE_CURVE('',#243,#211,#287,.T.);
#186=EDGE_CURVE('',#242,#210,#288,.T.);
#187=EDGE_CURVE('',#244,#245,#289,.T.);
#188=EDGE_CURVE('',#243,#245,#290,.T.);
#189=EDGE_CURVE('',#242,#244,#291,.T.);
#190=EDGE_CURVE('',#245,#212,#292,.T.);
#191=EDGE_CURVE('',#244,#213,#293,.T.);
#192=EDGE_CURVE('',#246,#239,#294,.T.);
#193=EDGE_CURVE('',#246,#223,#295,.T.);
#194=EDGE_CURVE('',#247,#238,#296,.T.);
#195=EDGE_CURVE('',#247,#246,#297,.T.);
#196=EDGE_CURVE('',#247,#224,#298,.T.);
#197=EDGE_CURVE('',#231,#248,#299,.T.);
#198=EDGE_CURVE('',#240,#248,#300,.T.);
#199=EDGE_CURVE('',#249,#248,#301,.T.);
#200=EDGE_CURVE('',#241,#249,#302,.T.);
#201=EDGE_CURVE('',#230,#249,#303,.T.);
#202=EDGE_CURVE('',#250,#250,#20,.T.);
#203=EDGE_CURVE('',#251,#251,#21,.T.);
#204=EDGE_CURVE('',#252,#252,#22,.T.);
#205=EDGE_CURVE('',#253,#253,#23,.T.);
#206=EDGE_CURVE('',#218,#217,#304,.T.);
#207=EDGE_CURVE('',#220,#216,#305,.T.);
#208=EDGE_CURVE('',#227,#214,#306,.T.);
#209=EDGE_CURVE('',#226,#215,#307,.T.);
#210=VERTEX_POINT('',#670);
#211=VERTEX_POINT('',#671);
#212=VERTEX_POINT('',#673);
#213=VERTEX_POINT('',#675);
#214=VERTEX_POINT('',#678);
#215=VERTEX_POINT('',#679);
#216=VERTEX_POINT('',#681);
#217=VERTEX_POINT('',#683);
#218=VERTEX_POINT('',#687);
#219=VERTEX_POINT('',#688);
#220=VERTEX_POINT('',#690);
#221=VERTEX_POINT('',#692);
#222=VERTEX_POINT('',#694);
#223=VERTEX_POINT('',#696);
#224=VERTEX_POINT('',#698);
#225=VERTEX_POINT('',#700);
#226=VERTEX_POINT('',#704);
#227=VERTEX_POINT('',#705);
#228=VERTEX_POINT('',#707);
#229=VERTEX_POINT('',#709);
#230=VERTEX_POINT('',#711);
#231=VERTEX_POINT('',#713);
#232=VERTEX_POINT('',#715);
#233=VERTEX_POINT('',#717);
#234=VERTEX_POINT('',#721);
#235=VERTEX_POINT('',#723);
#236=VERTEX_POINT('',#725);
#237=VERTEX_POINT('',#727);
#238=VERTEX_POINT('',#730);
#239=VERTEX_POINT('',#732);
#240=VERTEX_POINT('',#736);
#241=VERTEX_POINT('',#738);
#242=VERTEX_POINT('',#742);
#243=VERTEX_POINT('',#743);
#244=VERTEX_POINT('',#748);
#245=VERTEX_POINT('',#749);
#246=VERTEX_POINT('',#758);
#247=VERTEX_POINT('',#762);
#248=VERTEX_POINT('',#769);
#249=VERTEX_POINT('',#773);
#250=VERTEX_POINT('',#779);
#251=VERTEX_POINT('',#782);
#252=VERTEX_POINT('',#785);
#253=VERTEX_POINT('',#788);
#254=LINE('',#669,#308);
#255=LINE('',#672,#309);
#256=LINE('',#674,#310);
#257=LINE('',#676,#311);
#258=LINE('',#677,#312);
#259=LINE('',#680,#313);
#260=LINE('',#682,#314);
#261=LINE('',#684,#315);
#262=LINE('',#686,#316);
#263=LINE('',#689,#317);
#264=LINE('',#691,#318);
#265=LINE('',#693,#319);
#266=LINE('',#695,#320);
#267=LINE('',#697,#321);
#268=LINE('',#699,#322);
#269=LINE('',#701,#323);
#270=LINE('',#703,#324);
#271=LINE('',#706,#325);
#272=LINE('',#708,#326);
#273=LINE('',#710,#327);
#274=LINE('',#712,#328);
#275=LINE('',#714,#329);
#276=LINE('',#716,#330);
#277=LINE('',#718,#331);
#278=LINE('',#728,#332);
#279=LINE('',#729,#333);
#280=LINE('',#731,#334);
#281=LINE('',#733,#335);
#282=LINE('',#734,#336);
#283=LINE('',#735,#337);
#284=LINE('',#737,#338);
#285=LINE('',#739,#339);
#286=LINE('',#741,#340);
#287=LINE('',#744,#341);
#288=LINE('',#745,#342);
#289=LINE('',#747,#343);
#290=LINE('',#750,#344);
#291=LINE('',#751,#345);
#292=LINE('',#753,#346);
#293=LINE('',#754,#347);
#294=LINE('',#757,#348);
#295=LINE('',#759,#349);
#296=LINE('',#761,#350);
#297=LINE('',#763,#351);
#298=LINE('',#765,#352);
#299=LINE('',#768,#353);
#300=LINE('',#770,#354);
#301=LINE('',#772,#355);
#302=LINE('',#774,#356);
#303=LINE('',#776,#357);
#304=LINE('',#795,#358);
#305=LINE('',#796,#359);
#306=LINE('',#798,#360);
#307=LINE('',#800,#361);
#308=VECTOR('',#543,1.);
#309=VECTOR('',#544,1.);
#310=VECTOR('',#545,1.);
#311=VECTOR('',#546,1.);
#312=VECTOR('',#547,1.);
#313=VECTOR('',#548,1.);
#314=VECTOR('',#549,1.);
#315=VECTOR('',#550,1.);
#316=VECTOR('',#553,1.);
#317=VECTOR('',#554,1.);
#318=VECTOR('',#555,1.);
#319=VECTOR('',#556,1.);
#320=VECTOR('',#557,1.);
#321=VECTOR('',#558,1.);
#322=VECTOR('',#559,1.);
#323=VECTOR('',#560,1.);
#324=VECTOR('',#563,1.);
#325=VECTOR('',#564,1.);
#326=VECTOR('',#565,1.);
#327=VECTOR('',#566,1.);
#328=VECTOR('',#567,1.);
#329=VECTOR('',#568,1.);
#330=VECTOR('',#569,1.);
#331=VECTOR('',#570,1.);
#332=VECTOR('',#581,1.);
#333=VECTOR('',#582,1.);
#334=VECTOR('',#583,1.);
#335=VECTOR('',#584,1.);
#336=VECTOR('',#585,1.);
#337=VECTOR('',#586,1.);
#338=VECTOR('',#587,1.);
#339=VECTOR('',#588,1.);
#340=VECTOR('',#591,1.);
#341=VECTOR('',#592,1.);
#342=VECTOR('',#593,1.);
#343=VECTOR('',#596,1.);
#344=VECTOR('',#597,1.);
#345=VECTOR('',#598,1.);
#346=VECTOR('',#601,1.);
#347=VECTOR('',#602,1.);
#348=VECTOR('',#607,1.);
#349=VECTOR('',#608,1.);
#350=VECTOR('',#611,1.);
#351=VECTOR('',#612,1.);
#352=VECTOR('',#615,1.);
#353=VECTOR('',#620,1.);
#354=VECTOR('',#621,1.);
#355=VECTOR('',#624,1.);
#356=VECTOR('',#625,1.);
#357=VECTOR('',#628,1.);
#358=VECTOR('',#657,1.);
#359=VECTOR('',#658,1.);
#360=VECTOR('',#661,1.);
#361=VECTOR('',#664,1.);
#362=EDGE_LOOP('',(#24,#25,#26,#27));
#363=EDGE_LOOP('',(#28,#29,#30,#31));
#364=EDGE_LOOP('',(#32,#33,#34,#35,#36,#37,#38,#39));
#365=EDGE_LOOP('',(#40,#41,#42,#43,#44,#45,#46,#47));
#366=EDGE_LOOP('',(#48));
#367=EDGE_LOOP('',(#49));
#368=EDGE_LOOP('',(#50));
#369=EDGE_LOOP('',(#51));
#370=EDGE_LOOP('',(#52,#53,#54,#55,#56,#57,#58,#59,#60,#61,#62,#63));
#371=EDGE_LOOP('',(#64,#65,#66,#67));
#372=EDGE_LOOP('',(#68,#69,#70,#71));
#373=EDGE_LOOP('',(#72,#73,#74,#75));
#374=EDGE_LOOP('',(#76,#77,#78,#79));
#375=EDGE_LOOP('',(#80,#81,#82,#83));
#376=EDGE_LOOP('',(#84,#85,#86,#87));
#377=EDGE_LOOP('',(#88,#89,#90,#91));
#378=EDGE_LOOP('',(#92,#93,#94,#95));
#379=EDGE_LOOP('',(#96,#97,#98,#99));
#380=EDGE_LOOP('',(#100,#101,#102,#103));
#381=EDGE_LOOP('',(#104,#105,#106,#107));
#382=EDGE_LOOP('',(#108,#109,#110,#111));
#383=EDGE_LOOP('',(#112));
#384=EDGE_LOOP('',(#113));
#385=EDGE_LOOP('',(#114));
#386=EDGE_LOOP('',(#115));
#387=EDGE_LOOP('',(#116));
#388=EDGE_LOOP('',(#117));
#389=EDGE_LOOP('',(#118));
#390=EDGE_LOOP('',(#119));
#391=EDGE_LOOP('',(#120,#121,#122,#123));
#392=EDGE_LOOP('',(#124));
#393=EDGE_LOOP('',(#125));
#394=EDGE_LOOP('',(#126));
#395=EDGE_LOOP('',(#127));
#396=EDGE_LOOP('',(#128,#129,#130,#131));
#397=EDGE_LOOP('',(#132,#133,#134,#135,#136,#137));
#398=EDGE_LOOP('',(#138,#139,#140,#141,#142,#143));
#399=EDGE_LOOP('',(#144,#145,#146,#147));
#400=FACE_BOUND('',#362,.T.);
#401=FACE_BOUND('',#363,.T.);
#402=FACE_BOUND('',#364,.T.);
#403=FACE_BOUND('',#365,.T.);
#404=FACE_BOUND('',#366,.T.);
#405=FACE_BOUND('',#367,.T.);
#406=FACE_BOUND('',#368,.T.);
#407=FACE_BOUND('',#369,.T.);
#408=FACE_BOUND('',#370,.T.);
#409=FACE_BOUND('',#371,.T.);
#410=FACE_BOUND('',#372,.T.);
#411=FACE_BOUND('',#373,.T.);
#412=FACE_BOUND('',#374,.T.);
#413=FACE_BOUND('',#375,.T.);
#414=FACE_BOUND('',#376,.T.);
#415=FACE_BOUND('',#377,.T.);
#416=FACE_BOUND('',#378,.T.);
#417=FACE_BOUND('',#379,.T.);
#418=FACE_BOUND('',#380,.T.);
#419=FACE_BOUND('',#381,.T.);
#420=FACE_BOUND('',#382,.T.);
#421=FACE_BOUND('',#383,.T.);
#422=FACE_BOUND('',#384,.T.);
#423=FACE_BOUND('',#385,.T.);
#424=FACE_BOUND('',#386,.T.);
#425=FACE_BOUND('',#387,.T.);
#426=FACE_BOUND('',#388,.T.);
#427=FACE_BOUND('',#389,.T.);
#428=FACE_BOUND('',#390,.T.);
#429=FACE_BOUND('',#391,.T.);
#430=FACE_BOUND('',#392,.T.);
#431=FACE_BOUND('',#393,.T.);
#432=FACE_BOUND('',#394,.T.);
#433=FACE_BOUND('',#395,.T.);
#434=FACE_BOUND('',#396,.T.);
#435=FACE_BOUND('',#397,.T.);
#436=FACE_BOUND('',#398,.T.);
#437=FACE_BOUND('',#399,.T.);
#438=PLANE('',#503);
#439=PLANE('',#504);
#440=PLANE('',#505);
#441=PLANE('',#506);
#442=PLANE('',#511);
#443=PLANE('',#512);
#444=PLANE('',#513);
#445=PLANE('',#514);
#446=PLANE('',#515);
#447=PLANE('',#516);
#448=PLANE('',#517);
#449=PLANE('',#518);
#450=PLANE('',#519);
#451=PLANE('',#520);
#452=PLANE('',#521);
#453=PLANE('',#530);
#454=PLANE('',#531);
#455=PLANE('',#532);
#456=PLANE('',#533);
#457=PLANE('',#534);
#458=PLANE('',#535);
#459=PLANE('',#536);
#460=PLANE('',#537);
#461=PLANE('',#538);
#462=ADVANCED_FACE('',(#400,#401),#438,.F.);
#463=ADVANCED_FACE('',(#402),#439,.F.);
#464=ADVANCED_FACE('',(#403),#440,.T.);
#465=ADVANCED_FACE('',(#404,#405,#406,#407,#408),#441,.T.);
#466=ADVANCED_FACE('',(#409),#442,.F.);
#467=ADVANCED_FACE('',(#410),#443,.T.);
#468=ADVANCED_FACE('',(#411),#444,.T.);
#469=ADVANCED_FACE('',(#412),#445,.F.);
#470=ADVANCED_FACE('',(#413),#446,.T.);
#471=ADVANCED_FACE('',(#414),#447,.T.);
#472=ADVANCED_FACE('',(#415),#448,.F.);
#473=ADVANCED_FACE('',(#416,#417),#449,.T.);
#474=ADVANCED_FACE('',(#418),#450,.F.);
#475=ADVANCED_FACE('',(#419),#451,.T.);
#476=ADVANCED_FACE('',(#420),#452,.T.);
#477=ADVANCED_FACE('',(#421,#422),#12,.F.);
#478=ADVANCED_FACE('',(#423,#424),#13,.F.);
#479=ADVANCED_FACE('',(#425,#426),#14,.F.);
#480=ADVANCED_FACE('',(#427,#428),#15,.F.);
#481=ADVANCED_FACE('',(#429),#453,.T.);
#482=ADVANCED_FACE('',(#430),#454,.T.);
#483=ADVANCED_FACE('',(#431),#455,.T.);
#484=ADVANCED_FACE('',(#432),#456,.T.);
#485=ADVANCED_FACE('',(#433),#457,.T.);
#486=ADVANCED_FACE('',(#434),#458,.T.);
#487=ADVANCED_FACE('',(#435),#459,.T.);
#488=ADVANCED_FACE('',(#436),#460,.T.);
#489=ADVANCED_FACE('',(#437),#461,.T.);
#490=CLOSED_SHELL('',(#462,#463,#464,#465,#466,#467,#468,#469,#470,#471,
#472,#473,#474,#475,#476,#477,#478,#479,#480,#481,#482,#483,#484,#485,#486,
#487,#488,#489));
#491=STYLED_ITEM('',(#492),#499);
#492=PRESENTATION_STYLE_ASSIGNMENT((#493));
#493=SURFACE_STYLE_USAGE(.BOTH.,#494);
#494=SURFACE_SIDE_STYLE('',(#495));
#495=SURFACE_STYLE_FILL_AREA(#496);
#496=FILL_AREA_STYLE('',(#497));
#497=FILL_AREA_STYLE_COLOUR('',#498);
#498=COLOUR_RGB('',0.615686274509804,0.811764705882353,0.929411764705882);
#499=MANIFOLD_SOLID_BREP('Part 1',#490);
#500=SHAPE_DEFINITION_REPRESENTATION(#808,#501);
#501=SHAPE_REPRESENTATION('Part 1',(#502),#803);
#502=AXIS2_PLACEMENT_3D('',#667,#539,#540);
#503=AXIS2_PLACEMENT_3D('',#668,#541,#542);
#504=AXIS2_PLACEMENT_3D('',#685,#551,#552);
#505=AXIS2_PLACEMENT_3D('',#702,#561,#562);
#506=AXIS2_PLACEMENT_3D('',#719,#571,#572);
#507=AXIS2_PLACEMENT_3D('',#720,#573,#574);
#508=AXIS2_PLACEMENT_3D('',#722,#575,#576);
#509=AXIS2_PLACEMENT_3D('',#724,#577,#578);
#510=AXIS2_PLACEMENT_3D('',#726,#579,#580);
#511=AXIS2_PLACEMENT_3D('',#740,#589,#590);
#512=AXIS2_PLACEMENT_3D('',#746,#594,#595);
#513=AXIS2_PLACEMENT_3D('',#752,#599,#600);
#514=AXIS2_PLACEMENT_3D('',#755,#603,#604);
#515=AXIS2_PLACEMENT_3D('',#756,#605,#606);
#516=AXIS2_PLACEMENT_3D('',#760,#609,#610);
#517=AXIS2_PLACEMENT_3D('',#764,#613,#614);
#518=AXIS2_PLACEMENT_3D('',#766,#616,#617);
#519=AXIS2_PLACEMENT_3D('',#767,#618,#619);
#520=AXIS2_PLACEMENT_3D('',#771,#622,#623);
#521=AXIS2_PLACEMENT_3D('',#775,#626,#627);
#522=AXIS2_PLACEMENT_3D('',#777,#629,#630);
#523=AXIS2_PLACEMENT_3D('',#778,#631,#632);
#524=AXIS2_PLACEMENT_3D('',#780,#633,#634);
#525=AXIS2_PLACEMENT_3D('',#781,#635,#636);
#526=AXIS2_PLACEMENT_3D('',#783,#637,#638);
#527=AXIS2_PLACEMENT_3D('',#784,#639,#640);
#528=AXIS2_PLACEMENT_3D('',#786,#641,#642);
#529=AXIS2_PLACEMENT_3D('',#787,#643,#644);
#530=AXIS2_PLACEMENT_3D('',#789,#645,#646);
#531=AXIS2_PLACEMENT_3D('',#790,#647,#648);
#532=AXIS2_PLACEMENT_3D('',#791,#649,#650);
#533=AXIS2_PLACEMENT_3D('',#792,#651,#652);
#534=AXIS2_PLACEMENT_3D('',#793,#653,#654);
#535=AXIS2_PLACEMENT_3D('',#794,#655,#656);
#536=AXIS2_PLACEMENT_3D('',#797,#659,#660);
#537=AXIS2_PLACEMENT_3D('',#799,#662,#663);
#538=AXIS2_PLACEMENT_3D('',#801,#665,#666);
#539=DIRECTION('',(0.,0.,1.));
#540=DIRECTION('',(1.,0.,0.));
#541=DIRECTION('',(-1.,0.,0.));
#542=DIRECTION('',(0.,0.,1.));
#543=DIRECTION('',(0.,0.,1.));
#544=DIRECTION('',(0.,-1.,0.));
#545=DIRECTION('',(0.,0.,1.));
#546=DIRECTION('',(0.,-1.,0.));
#547=DIRECTION('',(0.,-1.,-1.28490258074627E-16));
#548=DIRECTION('',(0.,0.,1.));
#549=DIRECTION('',(0.,1.,0.));
#550=DIRECTION('',(0.,0.,-1.));
#551=DIRECTION('',(1.,0.,0.));
#552=DIRECTION('',(0.,0.,-1.));
#553=DIRECTION('',(0.,0.,-1.));
#554=DIRECTION('',(0.,1.,0.));
#555=DIRECTION('',(0.,0.,1.));
#556=DIRECTION('',(0.,-1.,0.));
#557=DIRECTION('',(0.,0.,-1.));
#558=DIRECTION('',(0.,-1.,0.));
#559=DIRECTION('',(0.,0.,-1.));
#560=DIRECTION('',(0.,-1.,0.));
#561=DIRECTION('',(-1.,0.,0.));
#562=DIRECTION('',(0.,0.,1.));
#563=DIRECTION('',(0.,1.,1.28490258074627E-16));
#564=DIRECTION('',(0.,0.,1.));
#565=DIRECTION('',(0.,1.,0.));
#566=DIRECTION('',(0.,0.,-1.));
#567=DIRECTION('',(0.,1.,0.));
#568=DIRECTION('',(0.,0.,-1.));
#569=DIRECTION('',(0.,1.,0.));
#570=DIRECTION('',(0.,0.,-1.));
#571=DIRECTION('',(0.,0.,1.));
#572=DIRECTION('',(1.,0.,0.));
#573=DIRECTION('',(0.,0.,1.));
#574=DIRECTION('',(1.,0.,0.));
#575=DIRECTION('',(0.,0.,1.));
#576=DIRECTION('',(1.,0.,0.));
#577=DIRECTION('',(0.,0.,1.));
#578=DIRECTION('',(1.,0.,0.));
#579=DIRECTION('',(0.,0.,1.));
#580=DIRECTION('',(1.,0.,0.));
#581=DIRECTION('',(1.,0.,0.));
#582=DIRECTION('',(1.,0.,0.));
#583=DIRECTION('',(0.,-1.,0.));
#584=DIRECTION('',(1.,0.,0.));
#585=DIRECTION('',(-1.,0.,0.));
#586=DIRECTION('',(-1.,-1.14064009379297E-16,0.));
#587=DIRECTION('',(0.,-1.,0.));
#588=DIRECTION('',(-1.,-1.52085345839062E-16,0.));
#589=DIRECTION('',(0.,-1.,0.));
#590=DIRECTION('',(0.,0.,-1.));
#591=DIRECTION('',(0.,0.,1.));
#592=DIRECTION('',(1.,0.,0.));
#593=DIRECTION('',(1.,0.,0.));
#594=DIRECTION('',(-1.,0.,0.));
#595=DIRECTION('',(0.,0.,1.));
#596=DIRECTION('',(0.,0.,1.));
#597=DIRECTION('',(0.,-1.,0.));
#598=DIRECTION('',(0.,-1.,0.));
#599=DIRECTION('',(0.,-1.,0.));
#600=DIRECTION('',(0.,0.,-1.));
#601=DIRECTION('',(1.,0.,0.));
#602=DIRECTION('',(1.,0.,0.));
#603=DIRECTION('',(0.,0.,1.));
#604=DIRECTION('',(1.,0.,0.));
#605=DIRECTION('',(0.,1.,0.));
#606=DIRECTION('',(0.,0.,1.));
#607=DIRECTION('',(0.,0.,-1.));
#608=DIRECTION('',(1.,0.,0.));
#609=DIRECTION('',(1.,0.,0.));
#610=DIRECTION('',(0.,0.,-1.));
#611=DIRECTION('',(0.,0.,-1.));
#612=DIRECTION('',(0.,-1.,0.));
#613=DIRECTION('',(0.,1.,0.));
#614=DIRECTION('',(0.,0.,1.));
#615=DIRECTION('',(1.,0.,0.));
#616=DIRECTION('',(0.,0.,1.));
#617=DIRECTION('',(1.,0.,0.));
#618=DIRECTION('',(1.14064009379297E-16,-1.,0.));
#619=DIRECTION('',(1.,1.14064009379297E-16,0.));
#620=DIRECTION('',(-1.,-1.14064009379297E-16,0.));
#621=DIRECTION('',(0.,0.,-1.));
#622=DIRECTION('',(1.,0.,0.));
#623=DIRECTION('',(0.,0.,-1.));
#624=DIRECTION('',(0.,-1.,0.));
#625=DIRECTION('',(0.,0.,-1.));
#626=DIRECTION('',(1.52085345839062E-16,-1.,0.));
#627=DIRECTION('',(1.,1.52085345839062E-16,0.));
#628=DIRECTION('',(-1.,-1.52085345839062E-16,0.));
#629=DIRECTION('',(0.,0.,-1.));
#630=DIRECTION('',(-1.,0.,0.));
#631=DIRECTION('',(0.,0.,1.));
#632=DIRECTION('',(1.,0.,0.));
#633=DIRECTION('',(0.,0.,-1.));
#634=DIRECTION('',(-1.,0.,0.));
#635=DIRECTION('',(0.,0.,1.));
#636=DIRECTION('',(1.,0.,0.));
#637=DIRECTION('',(0.,0.,-1.));
#638=DIRECTION('',(-1.,0.,0.));
#639=DIRECTION('',(0.,0.,1.));
#640=DIRECTION('',(1.,0.,0.));
#641=DIRECTION('',(0.,0.,-1.));
#642=DIRECTION('',(-1.,0.,0.));
#643=DIRECTION('',(0.,0.,1.));
#644=DIRECTION('',(1.,0.,0.));
#645=DIRECTION('',(0.,0.,1.));
#646=DIRECTION('',(1.,0.,0.));
#647=DIRECTION('',(0.,0.,1.));
#648=DIRECTION('',(1.,0.,0.));
#649=DIRECTION('',(0.,0.,1.));
#650=DIRECTION('',(1.,0.,0.));
#651=DIRECTION('',(0.,0.,1.));
#652=DIRECTION('',(1.,0.,0.));
#653=DIRECTION('',(0.,0.,1.));
#654=DIRECTION('',(1.,0.,0.));
#655=DIRECTION('',(0.,0.,-1.));
#656=DIRECTION('',(-1.,0.,0.));
#657=DIRECTION('',(1.,0.,0.));
#658=DIRECTION('',(1.,0.,0.));
#659=DIRECTION('',(0.,-1.,0.));
#660=DIRECTION('',(0.,0.,-1.));
#661=DIRECTION('',(1.,0.,0.));
#662=DIRECTION('',(0.,1.,0.));
#663=DIRECTION('',(0.,0.,1.));
#664=DIRECTION('',(1.,0.,0.));
#665=DIRECTION('',(0.,-1.28490258074627E-16,1.));
#666=DIRECTION('',(0.,-1.,-1.28490258074627E-16));
#667=CARTESIAN_POINT('',(0.,0.,0.));
#668=CARTESIAN_POINT('',(0.309214145366668,0.013768333395751,-0.003));
#669=CARTESIAN_POINT('',(0.309214145366668,0.089768333395751,-0.003));
#670=CARTESIAN_POINT('',(0.309214145366668,0.089768333395751,-0.003));
#671=CARTESIAN_POINT('',(0.309214145366668,0.089768333395751,0.02));
#672=CARTESIAN_POINT('',(0.309214145366668,0.013768333395751,0.02));
#673=CARTESIAN_POINT('',(0.309214145366668,-0.062231666604249,0.02));
#674=CARTESIAN_POINT('',(0.309214145366668,-0.062231666604249,-0.003));
#675=CARTESIAN_POINT('',(0.309214145366668,-0.062231666604249,-0.003));
#676=CARTESIAN_POINT('',(0.309214145366668,0.013768333395751,-0.003));
#677=CARTESIAN_POINT('',(0.309214145366668,0.0586165823042393,0.00608502142131341));
#678=CARTESIAN_POINT('',(0.309214145366668,0.0653669908642769,0.00608502142131341));
#679=CARTESIAN_POINT('',(0.309214145366668,0.0518661737442017,0.00608502142131341));
#680=CARTESIAN_POINT('',(0.309214145366668,0.0518661737442017,0.00950160529464489));
#681=CARTESIAN_POINT('',(0.309214145366668,0.0518661737442017,0.0129181891679764));
#682=CARTESIAN_POINT('',(0.309214145366668,0.0586165823042393,0.0129181891679764));
#683=CARTESIAN_POINT('',(0.309214145366668,0.0653669908642769,0.0129181891679764));
#684=CARTESIAN_POINT('',(0.309214145366668,0.0653669908642769,0.00950160529464489));
#685=CARTESIAN_POINT('',(0.304214145366668,0.014768333395751,0.02));
#686=CARTESIAN_POINT('',(0.304214145366668,0.0653669908642769,0.02));
#687=CARTESIAN_POINT('',(0.304214145366668,0.0653669908642769,0.0129181891679764));
#688=CARTESIAN_POINT('',(0.304214145366668,0.0653669908642769,0.01));
#689=CARTESIAN_POINT('',(0.304214145366668,0.014768333395751,0.0129181891679764));
#690=CARTESIAN_POINT('',(0.304214145366668,0.0518661737442017,0.0129181891679764));
#691=CARTESIAN_POINT('',(0.304214145366668,0.0518661737442017,0.02));
#692=CARTESIAN_POINT('',(0.304214145366668,0.0518661737442017,0.01));
#693=CARTESIAN_POINT('',(0.304214145366668,-0.056231666604249,0.01));
#694=CARTESIAN_POINT('',(0.304214145366668,-0.057231666604249,0.01));
#695=CARTESIAN_POINT('',(0.304214145366668,-0.057231666604249,0.02));
#696=CARTESIAN_POINT('',(0.304214145366668,-0.057231666604249,0.02));
#697=CARTESIAN_POINT('',(0.304214145366668,0.014768333395751,0.02));
#698=CARTESIAN_POINT('',(0.304214145366668,0.084768333395751,0.02));
#699=CARTESIAN_POINT('',(0.304214145366668,0.084768333395751,0.02));
#700=CARTESIAN_POINT('',(0.304214145366668,0.084768333395751,0.01));
#701=CARTESIAN_POINT('',(0.304214145366668,-0.056231666604249,0.01));
#702=CARTESIAN_POINT('',(0.301214145366668,0.0137683333957511,0.01));
#703=CARTESIAN_POINT('',(0.301214145366668,0.0137683333957511,0.0060850214213134));
#704=CARTESIAN_POINT('',(0.301214145366668,0.0518661737442017,0.00608502142131341));
#705=CARTESIAN_POINT('',(0.301214145366668,0.0653669908642769,0.00608502142131341));
#706=CARTESIAN_POINT('',(0.301214145366668,0.0653669908642769,0.01));
#707=CARTESIAN_POINT('',(0.301214145366668,0.0653669908642769,0.01));
#708=CARTESIAN_POINT('',(0.301214145366668,0.0137683333957511,0.01));
#709=CARTESIAN_POINT('',(0.301214145366668,0.0817683333957511,0.01));
#710=CARTESIAN_POINT('',(0.301214145366668,0.0817683333957511,0.01));
#711=CARTESIAN_POINT('',(0.301214145366668,0.0817683333957511,0.));
#712=CARTESIAN_POINT('',(0.301214145366668,0.0137683333957511,0.));
#713=CARTESIAN_POINT('',(0.301214145366668,-0.054231666604249,0.));
#714=CARTESIAN_POINT('',(0.301214145366668,-0.054231666604249,0.01));
#715=CARTESIAN_POINT('',(0.301214145366668,-0.054231666604249,0.01));
#716=CARTESIAN_POINT('',(0.301214145366668,0.0137683333957511,0.01));
#717=CARTESIAN_POINT('',(0.301214145366668,0.0518661737442017,0.01));
#718=CARTESIAN_POINT('',(0.301214145366668,0.0518661737442017,0.01));
#719=CARTESIAN_POINT('',(0.118714145366669,0.013768333395751,0.01));
#720=CARTESIAN_POINT('',(0.302714145366669,0.0832683333957511,0.01));
#721=CARTESIAN_POINT('',(0.303614145366669,0.0832683333957511,0.01));
#722=CARTESIAN_POINT('',(-0.0652858546333313,0.083268333395751,0.01));
#723=CARTESIAN_POINT('',(-0.0643858546333313,0.083268333395751,0.01));
#724=CARTESIAN_POINT('',(-0.0652858546333313,-0.055731666604249,0.01));
#725=CARTESIAN_POINT('',(-0.0643858546333313,-0.055731666604249,0.01));
#726=CARTESIAN_POINT('',(0.30271414536667,-0.0557316666042489,0.01));
#727=CARTESIAN_POINT('',(0.30361414536667,-0.0557316666042489,0.01));
#728=CARTESIAN_POINT('',(0.118714145366669,0.0653669908642769,0.01));
#729=CARTESIAN_POINT('',(0.118714145366669,0.084768333395751,0.01));
#730=CARTESIAN_POINT('',(-0.0667858546333313,0.084768333395751,0.01));
#731=CARTESIAN_POINT('',(-0.0667858546333313,0.014768333395751,0.01));
#732=CARTESIAN_POINT('',(-0.0667858546333313,-0.057231666604249,0.01));
#733=CARTESIAN_POINT('',(-0.0657858546333313,-0.057231666604249,0.01));
#734=CARTESIAN_POINT('',(0.118714145366669,0.0518661737442017,0.01));
#735=CARTESIAN_POINT('',(0.118714145366669,-0.054231666604249,0.01));
#736=CARTESIAN_POINT('',(-0.0637858546333313,-0.054231666604249,0.01));
#737=CARTESIAN_POINT('',(-0.0637858546333313,0.013768333395751,0.01));
#738=CARTESIAN_POINT('',(-0.0637858546333313,0.081768333395751,0.01));
#739=CARTESIAN_POINT('',(0.118714145366669,0.0817683333957511,0.01));
#740=CARTESIAN_POINT('',(0.118714145366669,0.089768333395751,-0.003));
#741=CARTESIAN_POINT('',(-0.0717858546333313,0.089768333395751,-0.003));
#742=CARTESIAN_POINT('',(-0.0717858546333313,0.089768333395751,-0.003));
#743=CARTESIAN_POINT('',(-0.0717858546333313,0.089768333395751,0.02));
#744=CARTESIAN_POINT('',(0.118714145366669,0.089768333395751,0.02));
#745=CARTESIAN_POINT('',(0.118714145366669,0.089768333395751,-0.003));
#746=CARTESIAN_POINT('',(-0.0717858546333313,0.013768333395751,-0.003));
#747=CARTESIAN_POINT('',(-0.0717858546333313,-0.062231666604249,-0.003));
#748=CARTESIAN_POINT('',(-0.0717858546333313,-0.062231666604249,-0.003));
#749=CARTESIAN_POINT('',(-0.0717858546333313,-0.062231666604249,0.02));
#750=CARTESIAN_POINT('',(-0.0717858546333313,0.013768333395751,0.02));
#751=CARTESIAN_POINT('',(-0.0717858546333313,0.013768333395751,-0.003));
#752=CARTESIAN_POINT('',(0.118714145366669,-0.062231666604249,-0.003));
#753=CARTESIAN_POINT('',(0.118714145366669,-0.062231666604249,0.02));
#754=CARTESIAN_POINT('',(0.118714145366669,-0.062231666604249,-0.003));
#755=CARTESIAN_POINT('',(0.118714145366669,0.013768333395751,-0.003));
#756=CARTESIAN_POINT('',(0.117714145366669,-0.057231666604249,0.02));
#757=CARTESIAN_POINT('',(-0.0667858546333313,-0.057231666604249,0.02));
#758=CARTESIAN_POINT('',(-0.0667858546333313,-0.057231666604249,0.02));
#759=CARTESIAN_POINT('',(0.117714145366669,-0.057231666604249,0.02));
#760=CARTESIAN_POINT('',(-0.0667858546333313,-0.056231666604249,0.02));
#761=CARTESIAN_POINT('',(-0.0667858546333313,0.084768333395751,0.02));
#762=CARTESIAN_POINT('',(-0.0667858546333313,0.084768333395751,0.02));
#763=CARTESIAN_POINT('',(-0.0667858546333313,-0.056231666604249,0.02));
#764=CARTESIAN_POINT('',(0.118714145366669,0.084768333395751,0.02));
#765=CARTESIAN_POINT('',(0.118714145366669,0.084768333395751,0.02));
#766=CARTESIAN_POINT('',(0.118714145366669,0.013768333395751,0.02));
#767=CARTESIAN_POINT('',(0.118714145366669,-0.054231666604249,0.01));
#768=CARTESIAN_POINT('',(0.118714145366669,-0.054231666604249,0.));
#769=CARTESIAN_POINT('',(-0.0637858546333313,-0.054231666604249,0.));
#770=CARTESIAN_POINT('',(-0.0637858546333313,-0.054231666604249,0.01));
#771=CARTESIAN_POINT('',(-0.0637858546333313,0.013768333395751,0.01));
#772=CARTESIAN_POINT('',(-0.0637858546333313,0.013768333395751,0.));
#773=CARTESIAN_POINT('',(-0.0637858546333313,0.081768333395751,0.));
#774=CARTESIAN_POINT('',(-0.0637858546333313,0.081768333395751,0.01));
#775=CARTESIAN_POINT('',(0.118714145366669,0.0817683333957511,0.01));
#776=CARTESIAN_POINT('',(0.118714145366669,0.0817683333957511,0.));
#777=CARTESIAN_POINT('',(0.30271414536667,-0.0557316666042489,0.01));
#778=CARTESIAN_POINT('',(0.30271414536667,-0.0557316666042489,0.005));
#779=CARTESIAN_POINT('',(0.30361414536667,-0.0557316666042489,0.005));
#780=CARTESIAN_POINT('',(-0.0652858546333313,-0.055731666604249,0.01));
#781=CARTESIAN_POINT('',(-0.0652858546333313,-0.055731666604249,0.005));
#782=CARTESIAN_POINT('',(-0.0643858546333313,-0.055731666604249,0.005));
#783=CARTESIAN_POINT('',(-0.0652858546333313,0.083268333395751,0.01));
#784=CARTESIAN_POINT('',(-0.0652858546333313,0.083268333395751,0.005));
#785=CARTESIAN_POINT('',(-0.0643858546333313,0.083268333395751,0.005));
#786=CARTESIAN_POINT('',(0.302714145366669,0.0832683333957511,0.01));
#787=CARTESIAN_POINT('',(0.302714145366669,0.0832683333957511,0.005));
#788=CARTESIAN_POINT('',(0.303614145366669,0.0832683333957511,0.005));
#789=CARTESIAN_POINT('',(0.118714145366669,0.013768333395751,0.));
#790=CARTESIAN_POINT('',(0.118714145366669,0.013768333395751,0.005));
#791=CARTESIAN_POINT('',(0.118714145366669,0.013768333395751,0.005));
#792=CARTESIAN_POINT('',(0.118714145366669,0.013768333395751,0.005));
#793=CARTESIAN_POINT('',(0.118714145366669,0.013768333395751,0.005));
#794=CARTESIAN_POINT('',(0.288914145366668,0.0586165823042393,0.0129181891679764));
#795=CARTESIAN_POINT('',(0.288914145366668,0.0653669908642769,0.0129181891679764));
#796=CARTESIAN_POINT('',(0.288914145366668,0.0518661737442017,0.0129181891679764));
#797=CARTESIAN_POINT('',(0.288914145366668,0.0653669908642769,0.00950160529464489));
#798=CARTESIAN_POINT('',(0.288914145366668,0.0653669908642769,0.00608502142131341));
#799=CARTESIAN_POINT('',(0.288914145366668,0.0518661737442017,0.00950160529464489));
#800=CARTESIAN_POINT('',(0.288914145366668,0.0518661737442017,0.00608502142131341));
#801=CARTESIAN_POINT('',(0.288914145366668,0.0586165823042393,0.00608502142131341));
#802=MECHANICAL_DESIGN_GEOMETRIC_PRESENTATION_REPRESENTATION('',(#491),
#803);
#803=(
GEOMETRIC_REPRESENTATION_CONTEXT(3)
GLOBAL_UNCERTAINTY_ASSIGNED_CONTEXT((#804))
GLOBAL_UNIT_ASSIGNED_CONTEXT((#807,#806,#805))
REPRESENTATION_CONTEXT('Part 1','TOP_LEVEL_ASSEMBLY_PART')
);
#804=UNCERTAINTY_MEASURE_WITH_UNIT(LENGTH_MEASURE(1.E-8),#807,
'DISTANCE_ACCURACY_VALUE','Maximum Tolerance applied to model');
#805=(
NAMED_UNIT(*)
SI_UNIT($,.STERADIAN.)
SOLID_ANGLE_UNIT()
);
#806=(
NAMED_UNIT(*)
PLANE_ANGLE_UNIT()
SI_UNIT($,.RADIAN.)
);
#807=(
LENGTH_UNIT()
NAMED_UNIT(*)
SI_UNIT($,.METRE.)
);
#808=PRODUCT_DEFINITION_SHAPE('','',#809);
#809=PRODUCT_DEFINITION('','',#811,#810);
#810=PRODUCT_DEFINITION_CONTEXT('',#817,'design');
#811=PRODUCT_DEFINITION_FORMATION_WITH_SPECIFIED_SOURCE('','',#813,
 .NOT_KNOWN.);
#812=PRODUCT_RELATED_PRODUCT_CATEGORY('','',(#813));
#813=PRODUCT('Part 1','Part 1','Part 1',(#815));
#814=PRODUCT_CATEGORY('','');
#815=PRODUCT_CONTEXT('',#817,'mechanical');
#816=APPLICATION_PROTOCOL_DEFINITION('international standard',
'ap242_managed_model_based_3d_engineering',2020,#817);
#817=APPLICATION_CONTEXT('managed model based 3d engineering');
ENDSEC;
END-ISO-10303-21;
